HIERARCHY
ROOT Hips
{
	OFFSET -0.001795 -0.223333 0.028219
	CHANNELS 6 Xposition Yposition Zposition Zrotation Yrotation Xrotation 
	JOINT LeftUpLeg
	{
		OFFSET 0.069520 -0.091406 -0.006815
		CHANNELS 3 Zrotation Yrotation Xrotation
		JOINT LeftLeg
		{
			OFFSET 0.034277 -0.375199 -0.004496
			CHANNELS 3 Zrotation Yrotation Xrotation
			JOINT LeftFoot
			{
				OFFSET -0.013596 -0.397961 -0.043693
				CHANNELS 3 Zrotation Yrotation Xrotation
				JOINT LeftToe
				{
					OFFSET 0.026358 -0.055791 0.119288
					CHANNELS 3 Zrotation Yrotation Xrotation
					End Site
					{
						OFFSET 0.000000 0.000000 0.000000
					}
				}
			}
		}
	}
	JOINT RightUpLeg
	{
		OFFSET -0.067670 -0.090522 -0.004320
		CHANNELS 3 Zrotation Yrotation Xrotation
		JOINT RightLeg
		{
			OFFSET -0.038290 -0.382569 -0.008850
			CHANNELS 3 Zrotation Yrotation Xrotation
			JOINT RightFoot
			{
				OFFSET 0.015774 -0.398415 -0.042312
				CHANNELS 3 Zrotation Yrotation Xrotation
				JOINT RightToe
				{
					OFFSET -0.025372 -0.048144 0.123348
					CHANNELS 3 Zrotation Yrotation Xrotation
					End Site
					{
						OFFSET 0.000000 0.000000 0.000000
					}
				}
			}
		}
	}
	JOINT Spine
	{
		OFFSET -0.002533 0.108963 -0.026696
		CHANNELS 3 Zrotation Yrotation Xrotation
		JOINT Spine1
		{
			OFFSET 0.005487 0.135180 0.001092
			CHANNELS 3 Zrotation Yrotation Xrotation
			JOINT Spine2
			{
				OFFSET 0.001457 0.052922 0.025425
				CHANNELS 3 Zrotation Yrotation Xrotation
				JOINT Neck
				{
					OFFSET -0.002778 0.213870 -0.042857
					CHANNELS 3 Zrotation Yrotation Xrotation
					JOINT Head
					{
						OFFSET 0.005152 0.064970 0.051349
						CHANNELS 3 Zrotation Yrotation Xrotation
						End Site
						{
							OFFSET 0.000000 0.000000 0.000000
						}
					}
				}
				JOINT LeftShoulder
				{
					OFFSET 0.078845 0.121749 -0.034090
					CHANNELS 3 Zrotation Yrotation Xrotation
					JOINT LeftArm
					{
						OFFSET 0.090977 0.030469 -0.008868
						CHANNELS 3 Zrotation Yrotation Xrotation
						JOINT LeftForeArm
						{
							OFFSET 0.259612 -0.012772 -0.027456
							CHANNELS 3 Zrotation Yrotation Xrotation
							JOINT LeftHand
							{
								OFFSET 0.249234 0.008986 -0.001171
								CHANNELS 3 Zrotation Yrotation Xrotation
								End Site
								{
									OFFSET 0.000000 0.000000 0.000000
								}
							}
						}
					}
				}
				JOINT RightShoulder
				{
					OFFSET -0.081759 0.118833 -0.038615
					CHANNELS 3 Zrotation Yrotation Xrotation
					JOINT RightArm
					{
						OFFSET -0.096012 0.032551 -0.009143
						CHANNELS 3 Zrotation Yrotation Xrotation
						JOINT RightForeArm
						{
							OFFSET -0.253742 -0.013329 -0.021401
							CHANNELS 3 Zrotation Yrotation Xrotation
							JOINT RightHand
							{
								OFFSET -0.255298 0.007772 -0.005559
								CHANNELS 3 Zrotation Yrotation Xrotation
								End Site
								{
									OFFSET 0.000000 0.000000 0.000000
								}
							}
						}
					}
				}
			}
		}
	}
}
MOTION
Frames: 18
Frame Time: 0.050000
0.000000 0.938974 0.000000 -2.921466 -1.139794 1.769920 -3.004128 0.026841 -0.163480 -0.127968 -0.043907 1.796762 3.835548 7.871013 -0.801264 0.000000 0.000000 0.000000 -2.868646 1.703481 -20.943848 4.377570 -0.341707 28.169697 -4.566527 -11.371834 -0.399554 0.000000 0.000000 0.000000 -1.085748 -0.164639 5.710342 1.789122 -0.696102 -3.662000 0.623432 -2.723623 11.288809 2.065107 -0.202056 -21.159308 0.000000 0.000000 0.000000 -27.186266 0.329963 -1.383626 -45.105219 -7.891979 -3.503805 -0.244527 -25.877677 1.359402 0.000000 0.000000 0.000000 23.948925 5.459732 0.012209 53.060486 9.000860 -1.568700 -5.473866 25.970783 -0.370992 0.000000 0.000000 0.000000 
-0.003970 0.937793 0.020300 -3.494142 -1.337856 2.004361 -2.157975 0.227406 1.749538 -0.372895 0.023479 0.597091 3.784943 7.485105 -1.814937 0.000000 0.000000 0.000000 -2.220375 1.901388 -21.950940 2.956893 0.100308 23.752886 -4.908320 -12.526890 1.057244 0.000000 0.000000 0.000000 -1.182467 -0.141231 5.167005 2.476712 -1.050043 -2.613481 0.169381 -3.103839 10.388760 3.285368 -0.955373 -20.743823 0.000000 0.000000 0.000000 -26.241254 1.030409 -1.667882 -46.804979 -8.428807 -3.331095 2.232525 -26.480699 0.866751 0.000000 0.000000 0.000000 23.975963 5.304210 -0.259410 54.072749 7.429960 -2.163570 -4.948534 26.239379 -0.303824 0.000000 0.000000 0.000000 
-0.008803 0.937703 0.039954 -3.445716 -1.507894 1.969805 -2.433854 0.356748 2.812612 0.147715 -0.052468 1.041849 3.612752 7.331738 -1.085881 0.000000 0.000000 0.000000 -1.756013 2.054054 -22.709145 1.258818 0.516540 19.960685 -2.927499 -8.723071 4.072775 0.000000 0.000000 0.000000 -0.777687 -0.165571 5.163731 1.990958 -0.837637 -2.511924 0.491861 -3.033665 9.895470 2.045511 -0.274005 -20.405787 0.000000 0.000000 0.000000 -27.640431 -0.636898 -0.696911 -45.511256 -9.301145 -2.933753 3.983640 -25.286500 0.407617 0.000000 0.000000 0.000000 23.873525 4.475746 -0.770942 54.605176 5.283220 -3.118351 -6.703162 25.215970 -0.653987 0.000000 0.000000 0.000000 
-0.014891 0.938034 0.058347 -3.501144 -0.509875 1.501111 -2.074698 0.526086 4.508940 0.601984 -0.103657 0.961428 3.017211 5.646604 -2.189726 0.000000 0.000000 0.000000 -1.637156 2.014720 -22.527973 1.290593 0.419207 18.737240 -2.968409 -9.098736 5.342747 0.000000 0.000000 0.000000 -0.398448 -0.190575 5.154790 1.457041 -0.606957 -2.140596 0.218392 -4.199089 10.047663 2.915225 -0.940163 -19.341161 0.000000 0.000000 0.000000 -27.486445 -0.646174 -0.461130 -44.781470 -10.329652 -2.622005 3.391630 -26.703063 0.602767 0.000000 0.000000 0.000000 25.882757 3.803175 -1.626060 53.858266 4.011059 -3.540323 -7.453162 25.067937 -0.838418 0.000000 0.000000 0.000000 
-0.021292 0.939098 0.075022 -3.485063 0.335199 1.246828 -1.163790 0.620335 5.990703 0.114370 -0.022860 0.296905 2.636024 5.188684 -1.042726 0.000000 0.000000 0.000000 -1.389029 1.964923 -21.886849 1.483411 0.283081 17.009904 -2.017752 -7.340974 6.635890 0.000000 0.000000 0.000000 -0.531981 -0.197224 5.494956 1.356977 -0.553745 -2.214929 0.350550 -4.698070 10.094451 2.806547 -0.902683 -19.194064 0.000000 0.000000 0.000000 -27.375606 -1.291938 -0.008391 -44.404460 -12.182900 -1.979579 3.429953 -26.907922 0.599165 0.000000 0.000000 0.000000 25.629066 3.238188 -1.954517 54.039694 3.149655 -3.953223 -7.721171 23.815179 -0.838695 0.000000 0.000000 0.000000 
-0.028016 0.941140 0.090435 -3.521614 1.269009 1.031230 -0.886441 0.680689 6.898588 0.696118 -0.100030 0.632940 2.442149 4.859983 -0.732437 0.000000 0.000000 0.000000 -1.520795 1.949750 -22.407707 2.459867 -0.005186 17.401912 -1.782659 -6.666668 6.331178 0.000000 0.000000 0.000000 -0.999784 -0.204152 6.432862 1.571727 -0.564862 -3.940579 0.912888 -6.486108 12.080828 3.310046 -1.212840 -21.756349 0.000000 0.000000 0.000000 -27.756274 -1.015934 0.412724 -43.375902 -13.650166 -1.810452 3.967572 -29.568619 0.659377 0.000000 0.000000 0.000000 24.737390 3.457773 -2.123532 54.163447 3.656773 -3.840985 -8.315642 23.790556 -1.007742 0.000000 0.000000 0.000000 
-0.035084 0.941531 0.106462 -3.642301 1.228006 1.737374 -0.531254 0.705541 7.449082 1.012897 -0.090895 -0.391883 2.428100 4.737152 -0.979533 0.000000 0.000000 0.000000 -1.712371 2.097769 -24.569998 3.243481 -0.223798 15.274061 -1.616905 -6.853209 8.146386 0.000000 0.000000 0.000000 -0.487989 -0.208388 5.674040 2.152945 -0.891756 -2.545764 0.695078 -6.398950 10.596480 2.857597 -1.004822 -20.413648 0.000000 0.000000 0.000000 -25.646561 -1.145154 0.432532 -45.165355 -14.184618 -1.400096 3.539110 -31.349887 0.843402 0.000000 0.000000 0.000000 23.126349 2.784701 -2.291282 54.417675 3.905818 -3.670917 -8.601672 23.857006 -1.090193 0.000000 0.000000 0.000000 
-0.043085 0.940295 0.125146 -3.059820 1.390101 2.719376 -0.668361 0.753418 7.818695 1.476369 -0.161238 0.102064 2.495483 5.068501 -0.466263 0.000000 0.000000 0.000000 -2.147622 2.089237 -25.597776 3.519151 -0.308061 11.858466 -1.077590 -5.960910 8.913677 0.000000 0.000000 0.000000 -0.597105 -0.197789 5.632607 2.590514 -1.038292 -3.349405 0.976024 -6.456248 11.243754 3.081691 -1.112939 -20.902164 0.000000 0.000000 0.000000 -25.692394 -1.485512 0.691802 -45.585525 -14.513047 -1.329182 3.977204 -33.747400 0.836862 0.000000 0.000000 0.000000 22.042839 2.815120 -2.087217 53.630712 5.099574 -3.184967 -10.639300 24.275525 -1.514446 0.000000 0.000000 0.000000 
-0.052418 0.937419 0.148291 -2.475668 1.825041 2.717923 -0.502066 0.872890 9.340761 2.103441 -0.245533 0.444215 2.126426 4.107950 -0.899733 0.000000 0.000000 0.000000 -2.143736 1.993389 -24.658631 3.171588 -0.258653 9.771505 -1.004335 -5.963800 9.590780 0.000000 0.000000 0.000000 0.050836 -0.243309 5.675835 2.920965 -1.212881 -2.840228 0.333366 -6.234576 10.480234 3.659615 -1.452283 -19.755008 0.000000 0.000000 0.000000 -24.597139 -1.223519 0.312837 -46.656733 -14.406263 -1.178391 4.408382 -34.465361 0.692884 0.000000 0.000000 0.000000 22.157252 2.760737 -1.991586 52.426350 7.176348 -2.166122 -14.731008 23.626061 -2.244361 0.000000 0.000000 0.000000 
-0.063285 0.934884 0.175995 -1.943668 2.618478 2.570234 -0.034802 0.911607 10.522276 2.343858 -0.387376 2.534856 1.999968 3.074503 -2.613260 0.000000 0.000000 0.000000 -2.440492 1.870482 -24.339390 3.524480 -0.343009 10.734989 -0.984934 -6.411686 11.656746 0.000000 0.000000 0.000000 0.804933 -0.309626 5.971423 2.662653 -1.127593 -2.267824 0.762294 -6.203087 9.299272 4.146183 -1.858596 -17.768348 0.000000 0.000000 0.000000 -25.128024 -1.267673 0.157084 -45.976135 -12.564233 -1.754562 3.065936 -35.789773 1.079609 0.000000 0.000000 0.000000 22.194453 2.811832 -1.889166 50.077248 8.087598 -1.610256 -16.145365 23.060362 -2.449487 0.000000 0.000000 0.000000 
-0.074810 0.934602 0.206444 -1.320233 3.569602 3.019515 0.558969 0.776270 9.899794 2.155840 -0.567981 6.116604 1.564610 2.631970 -1.419001 0.000000 0.000000 0.000000 -2.705510 1.699829 -23.182984 4.055748 -0.478964 11.065055 -1.391792 -7.000989 11.370414 0.000000 0.000000 0.000000 1.132248 -0.303047 5.366576 3.329051 -1.463501 -1.733031 1.145003 -5.317143 8.202769 4.197398 -1.709915 -17.749495 0.000000 0.000000 0.000000 -24.208872 0.420100 -1.330178 -46.627803 -10.543568 -2.251337 0.604575 -36.366717 1.759136 0.000000 0.000000 0.000000 22.450261 2.238912 -1.871532 47.344569 10.024024 -0.795310 -18.256177 22.778336 -2.732278 0.000000 0.000000 0.000000 
-0.085603 0.938194 0.235375 -0.833883 4.102438 3.599524 0.997375 0.488318 6.762042 1.937893 -0.978907 13.317394 0.631974 0.504081 -1.631113 0.000000 0.000000 0.000000 -2.909747 1.565463 -21.907021 4.566445 -0.601147 10.942187 -1.604223 -7.134361 10.476826 0.000000 0.000000 0.000000 2.367557 -0.385853 5.273947 3.081069 -1.388959 -1.124855 2.330107 -5.002782 7.101688 3.514255 -1.361841 -16.479185 0.000000 0.000000 0.000000 -24.277617 1.674687 -2.237954 -46.813384 -8.366542 -2.941161 -0.159186 -35.624651 1.910336 0.000000 0.000000 0.000000 21.561352 3.281496 -1.106019 44.862505 12.101300 0.021625 -19.783335 20.772322 -2.703524 0.000000 0.000000 0.000000 
-0.094549 0.942115 0.260608 -0.329926 4.125331 4.180200 2.162292 0.052438 1.731946 -0.596979 -0.914265 23.848907 0.568390 1.534946 0.697051 0.000000 0.000000 0.000000 -2.993037 1.501196 -21.011339 4.187118 -0.524061 11.455568 -1.542269 -6.559198 8.668806 0.000000 0.000000 0.000000 3.748203 -0.513035 5.570491 2.980360 -1.308200 -1.560563 2.902231 -2.336676 7.215597 3.248709 -0.915637 -16.565431 0.000000 0.000000 0.000000 -24.213668 1.378872 -2.865120 -47.547327 -5.844727 -3.703592 -1.256388 -35.010239 1.964257 0.000000 0.000000 0.000000 20.279374 3.931870 0.147765 42.431989 14.410227 0.504750 -20.101921 19.279200 -2.342226 0.000000 0.000000 0.000000 
-0.100802 0.945611 0.281613 0.603135 4.562574 4.004728 2.657970 -0.316173 -3.552950 -3.429337 -0.333095 33.024870 0.893981 3.143275 2.784265 0.000000 0.000000 0.000000 -3.718004 1.295231 -19.730203 4.767349 -0.670886 11.820854 -1.725991 -6.749857 8.084316 0.000000 0.000000 0.000000 4.970368 -0.766182 7.400627 2.324787 -0.958294 -2.296818 3.901354 0.111015 7.298629 3.288246 -0.645755 -16.805639 0.000000 0.000000 0.000000 -25.493862 1.201170 -3.741484 -46.802508 -4.799512 -3.807301 -2.184814 -34.477085 1.977571 0.000000 0.000000 0.000000 18.914206 4.841813 1.416313 39.304884 16.387137 0.760446 -19.667653 17.791981 -1.917464 0.000000 0.000000 0.000000 
-0.104765 0.948780 0.299459 1.954923 5.281685 4.044160 1.982176 -0.659257 -8.041484 -5.748415 0.449152 36.566975 2.731578 5.881971 0.348788 0.000000 0.000000 0.000000 -4.606219 1.088819 -18.790770 4.372148 -0.615470 12.600569 -1.655440 -6.389078 7.493636 0.000000 0.000000 0.000000 6.032368 -1.068060 9.380841 1.882080 -0.693527 -3.303787 4.086285 2.033420 7.842194 5.191355 -1.475312 -17.431143 0.000000 0.000000 0.000000 -26.020871 0.642635 -4.263923 -47.485084 -2.719022 -4.447780 -2.989498 -34.339680 2.006897 0.000000 0.000000 0.000000 19.247770 6.485913 2.990371 34.661437 19.016883 0.933149 -19.800209 14.631333 -1.397299 0.000000 0.000000 0.000000 
-0.107253 0.952964 0.315253 3.478470 5.486609 4.478531 0.759010 -1.030016 -11.532400 -6.881092 0.926087 35.320663 3.427462 6.937988 -0.754483 0.000000 0.000000 0.000000 -5.745328 0.888824 -17.970845 3.803484 -0.491516 12.794068 -1.216550 -5.274969 6.878723 0.000000 0.000000 0.000000 6.881210 -1.329959 10.803366 1.436974 -0.501161 -3.212834 4.316163 4.746502 7.906035 5.700043 -1.526632 -17.062886 0.000000 0.000000 0.000000 -26.737248 -0.952477 -4.443127 -46.840066 -0.709570 -4.781106 -4.560586 -34.890535 2.250085 0.000000 0.000000 0.000000 19.563938 7.877373 4.605360 29.412902 20.648003 0.619260 -20.038643 13.638854 -1.200195 0.000000 0.000000 0.000000 
-0.108820 0.956328 0.329072 4.560311 5.478881 5.144900 -0.920815 -1.383334 -13.664881 -5.804229 0.554933 29.744183 3.748386 7.493056 -1.119748 0.000000 0.000000 0.000000 -6.191718 0.813035 -17.316088 3.010880 -0.308099 13.024375 -0.954261 -4.205140 5.194988 0.000000 0.000000 0.000000 7.847813 -1.619693 12.056067 1.318444 -0.469875 -2.833411 4.556557 6.822125 7.978182 6.402782 -1.731248 -17.050550 0.000000 0.000000 0.000000 -26.448902 -0.763347 -5.258958 -47.560095 2.096784 -5.710696 -5.880422 -36.033404 2.515928 0.000000 0.000000 0.000000 19.157141 9.312048 5.974864 24.761684 22.750127 0.451615 -21.163801 10.689208 -0.818789 0.000000 0.000000 0.000000 
-0.109734 0.957937 0.341499 5.706431 6.555090 5.522728 -3.241313 -1.629295 -13.901034 -3.383674 -0.148072 21.915532 3.311409 6.490966 -1.221854 0.000000 0.000000 0.000000 -6.952646 0.640543 -15.870572 2.497264 -0.218952 12.219219 -1.390896 -4.716733 3.805763 0.000000 0.000000 0.000000 9.001217 -1.965730 13.207351 0.825610 -0.260925 -2.536643 4.706024 7.649609 8.194955 7.999784 -2.631328 -16.719454 0.000000 0.000000 0.000000 -26.484657 -2.643922 -4.644163 -47.575995 3.686124 -6.155529 -6.351947 -37.657740 2.638215 0.000000 0.000000 0.000000 18.988569 10.525933 7.034843 20.419532 23.196113 0.013251 -21.947518 9.547469 -0.680354 0.000000 0.000000 0.000000 
